<svg xmlns="http://www.w3.org/2000/svg" xmlns:xlink="http://www.w3.org/1999/xlink" width="800" zoomAndPan="magnify" viewBox="0 0 600 149.999998" height="200" preserveAspectRatio="xMidYMid meet" version="1.0"><defs><g/><clipPath id="0b14bec791"><path d="M 64.566406 64 L 126 64 L 126 100.460938 L 64.566406 100.460938 Z M 64.566406 64 " clip-rule="nonzero"/></clipPath></defs><path fill="#ffffff" d="M 25.953125 131.277344 C 28.515625 130.667969 30.375 128.171875 30.546875 125.601562 C 30.5625 125.363281 30.210938 125.378906 30.183594 125.601562 C 29.84375 128.195312 28.21875 130.050781 25.871094 131.082031 C 25.757812 131.132812 25.839844 131.304688 25.953125 131.277344 " fill-opacity="1" fill-rule="nonzero"/><path fill="#ffffff" d="M 23.351562 130.753906 C 21.984375 129.464844 21.101562 128.183594 20.511719 126.386719 C 20.464844 126.246094 20.257812 126.304688 20.289062 126.449219 C 20.648438 128.15625 21.796875 129.910156 23.28125 130.84375 C 23.335938 130.878906 23.398438 130.800781 23.351562 130.753906 " fill-opacity="1" fill-rule="nonzero"/><path fill="#ffffff" d="M 28.300781 54.046875 C 26.621094 56.59375 26.273438 59.910156 27.089844 62.816406 C 27.136719 62.984375 27.386719 62.914062 27.347656 62.746094 C 26.660156 59.667969 27.121094 56.960938 28.453125 54.136719 C 28.5 54.03125 28.363281 53.949219 28.300781 54.046875 " fill-opacity="1" fill-rule="nonzero"/><path fill="#ffffff" d="M 25.472656 85.703125 C 25.839844 92.902344 26.328125 100.101562 26.773438 107.296875 C 26.992188 110.796875 27.21875 114.296875 27.46875 117.800781 C 27.703125 121.113281 28.753906 125.40625 27.054688 128.453125 C 26.914062 128.710938 27.289062 128.925781 27.445312 128.683594 C 29.070312 126.136719 28.316406 122.71875 28.109375 119.890625 C 27.832031 116.09375 27.574219 112.296875 27.3125 108.5 C 26.789062 100.898438 26.335938 93.28125 25.574219 85.703125 C 25.570312 85.640625 25.46875 85.636719 25.472656 85.703125 " fill-opacity="1" fill-rule="nonzero"/><path fill="#ffffff" d="M 167.089844 131.328125 C 169.660156 130.734375 171.53125 128.25 171.71875 125.675781 C 171.734375 125.472656 171.390625 125.421875 171.359375 125.625 C 171.003906 128.242188 169.390625 130.105469 167.007812 131.136719 C 166.894531 131.1875 166.976562 131.355469 167.089844 131.328125 " fill-opacity="1" fill-rule="nonzero"/><path fill="#ffffff" d="M 164.488281 130.792969 C 163.125 129.492188 162.25 128.207031 161.667969 126.40625 C 161.621094 126.261719 161.414062 126.320312 161.445312 126.464844 C 161.796875 128.179688 162.9375 129.9375 164.417969 130.882812 C 164.472656 130.917969 164.535156 130.839844 164.488281 130.792969 " fill-opacity="1" fill-rule="nonzero"/><path fill="#ffffff" d="M 166.867188 85.398438 C 167.316406 96.914062 168.128906 108.425781 168.855469 119.921875 C 169.050781 122.980469 169.355469 126.101562 167.75 128.890625 C 167.601562 129.148438 167.976562 129.359375 168.136719 129.121094 C 169.710938 126.765625 169.597656 123.832031 169.425781 121.125 C 169.25 118.375 169.078125 115.628906 168.898438 112.882812 C 168.414062 105.546875 167.898438 98.210938 167.398438 90.875 C 167.273438 89.046875 167.128906 87.222656 166.96875 85.398438 C 166.960938 85.335938 166.863281 85.332031 166.867188 85.398438 " fill-opacity="1" fill-rule="nonzero"/><path fill="#ffffff" d="M 167.960938 34.480469 C 167.753906 44.949219 167.796875 55.449219 167.875 65.914062 C 167.886719 67.394531 167.929688 68.84375 167.929688 70.382812 L 168.058594 70.382812 C 168.058594 59.917969 168.203125 49.421875 168.101562 38.949219 C 168.085938 37.46875 168.050781 35.976562 168.019531 34.496094 C 168.019531 34.457031 167.964844 34.445312 167.960938 34.480469 " fill-opacity="1" fill-rule="nonzero"/><path fill="#ffffff" d="M 60.230469 55.917969 C 63.992188 48.757812 69.867188 42.933594 77.070312 39.246094 C 84.074219 35.664062 91.730469 34.402344 99.535156 34.828125 C 99.699219 34.839844 99.695312 34.589844 99.535156 34.574219 C 83.519531 32.882812 67.464844 41.585938 60.179688 55.890625 C 60.164062 55.921875 60.214844 55.953125 60.230469 55.917969 " fill-opacity="1" fill-rule="nonzero"/><path fill="#ffffff" d="M 66.902344 49.65625 C 70.351562 45.871094 74.363281 42.601562 78.964844 40.3125 C 83.714844 37.953125 88.824219 36.871094 94.101562 36.589844 C 94.207031 36.585938 94.207031 36.421875 94.101562 36.421875 C 83.425781 36.527344 73.78125 41.648438 66.847656 49.597656 C 66.8125 49.640625 66.867188 49.695312 66.902344 49.65625 " fill-opacity="1" fill-rule="nonzero"/><path fill="#ffffff" d="M 93.015625 112.023438 C 105.527344 113.683594 118.742188 107.96875 126.253906 97.855469 C 126.320312 97.765625 126.171875 97.683594 126.105469 97.769531 C 118.394531 107.847656 105.570312 113.050781 93.015625 111.90625 C 92.941406 111.898438 92.941406 112.011719 93.015625 112.023438 " fill-opacity="1" fill-rule="nonzero"/><path fill="#ffffff" d="M 71.261719 48.472656 C 76.121094 43.832031 81.851562 40.1875 88.597656 39.242188 C 88.699219 39.226562 88.675781 39.054688 88.574219 39.0625 C 81.878906 39.578125 75.851562 43.855469 71.230469 48.441406 C 71.210938 48.460938 71.242188 48.488281 71.261719 48.472656 " fill-opacity="1" fill-rule="nonzero"/><path fill="#ffffff" d="M 111.707031 106.632812 C 116.609375 104.847656 121.113281 101.59375 124.074219 97.257812 C 124.136719 97.160156 123.988281 97.078125 123.917969 97.167969 C 120.667969 101.382812 116.675781 104.617188 111.6875 106.566406 C 111.648438 106.582031 111.664062 106.648438 111.707031 106.632812 " fill-opacity="1" fill-rule="nonzero"/><path fill="#ffffff" d="M 111.308594 126.601562 C 127.023438 121.851562 140.640625 110.695312 146.949219 95.355469 C 148.761719 90.953125 149.941406 86.300781 150.328125 81.550781 C 150.34375 81.363281 150.058594 81.367188 150.039062 81.550781 C 148.847656 92.203125 144.382812 102.207031 137.179688 110.167969 C 130.214844 117.867188 121.121094 123.320312 111.277344 126.492188 C 111.207031 126.515625 111.234375 126.625 111.308594 126.601562 " fill-opacity="1" fill-rule="nonzero"/><path fill="#ffffff" d="M 50.132812 40.550781 C 41.3125 53.832031 38.570312 70.199219 41.949219 85.730469 C 41.988281 85.921875 42.277344 85.839844 42.238281 85.648438 C 39.230469 69.984375 41.710938 54.1875 50.1875 40.582031 C 50.207031 40.546875 50.15625 40.519531 50.132812 40.550781 " fill-opacity="1" fill-rule="nonzero"/><path fill="#ffffff" d="M 33.570312 46.910156 C 31.4375 49.820312 28.003906 50.871094 24.519531 50.835938 C 21.441406 50.800781 17.132812 49.109375 16.644531 45.582031 C 16.597656 45.242188 16.117188 45.367188 16.089844 45.65625 C 15.714844 49.324219 20.890625 51.5625 23.808594 51.742188 C 27.722656 51.980469 31.835938 50.621094 33.820312 47.054688 C 33.914062 46.890625 33.679688 46.761719 33.570312 46.910156 " fill-opacity="1" fill-rule="nonzero"/><path fill="#ffffff" d="M 29.585938 120.90625 C 29.222656 123.714844 29.46875 128.929688 25.371094 129.152344 C 23.445312 129.257812 21.746094 127.363281 21.207031 125.671875 C 20.726562 124.164062 21.210938 122.625 21.214844 121.097656 C 21.214844 120.671875 20.617188 120.609375 20.488281 121 C 19.851562 122.933594 19.664062 125.113281 20.648438 126.960938 C 21.511719 128.585938 23.199219 130.113281 25.125 130.144531 C 26.765625 130.175781 28.457031 129 29.277344 127.617188 C 30.433594 125.667969 29.933594 123.027344 29.902344 120.90625 C 29.902344 120.695312 29.613281 120.707031 29.585938 120.90625 " fill-opacity="1" fill-rule="nonzero"/><path fill="#ffffff" d="M 170.789062 120.925781 C 170.386719 123.921875 170.738281 127.992188 167.109375 129.03125 C 165.085938 129.609375 163.253906 127.839844 162.527344 126.078125 C 161.859375 124.445312 162.390625 122.800781 162.402344 121.113281 C 162.40625 120.683594 161.804688 120.625 161.675781 121.015625 C 161.027344 122.945312 160.828125 125.128906 161.804688 126.984375 C 162.660156 128.613281 164.339844 130.148438 166.269531 130.195312 C 167.910156 130.230469 169.609375 129.0625 170.4375 127.683594 C 171.605469 125.738281 171.121094 123.09375 171.101562 120.96875 C 171.101562 120.796875 170.816406 120.746094 170.789062 120.925781 " fill-opacity="1" fill-rule="nonzero"/><path fill="#ffffff" d="M 168.550781 19.621094 C 163.667969 21.769531 162.851562 27.695312 162.484375 32.433594 C 162.1875 36.226562 162.398438 40 162.410156 43.789062 C 162.429688 50.855469 162.3125 57.925781 162.523438 64.992188 C 162.59375 67.339844 162.675781 69.699219 162.6875 72.050781 C 162.6875 72.210938 162.941406 72.210938 162.9375 72.050781 C 162.914062 66.546875 163.132812 61.046875 163.070312 55.539062 C 163.003906 49.542969 162.804688 43.507812 162.945312 37.507812 C 163.027344 34.074219 163.332031 30.679688 164.03125 27.3125 C 164.304688 25.984375 164.628906 24.640625 165.265625 23.433594 C 166.070312 21.90625 167.355469 20.84375 168.648438 19.75 C 168.722656 19.683594 168.628906 19.585938 168.550781 19.621094 " fill-opacity="1" fill-rule="nonzero"/><path fill="#ffffff" d="M 168.765625 73.984375 C 167.351562 75.398438 163.972656 75.519531 162.535156 74.117188 C 162.433594 74.019531 162.304688 74.164062 162.386719 74.269531 C 163.875 76.175781 167.53125 76.082031 168.9375 74.117188 C 169.011719 74.015625 168.851562 73.898438 168.765625 73.984375 " fill-opacity="1" fill-rule="nonzero"/><path fill="#ffffff" d="M 69.367188 104.242188 C 63.910156 99.679688 59.515625 93.632812 57.363281 86.8125 C 55.40625 80.621094 54.992188 73.933594 55.738281 67.5 C 56.464844 61.203125 58.375 54.820312 62.0625 49.601562 C 66.054688 43.957031 71.90625 39.644531 78.128906 36.757812 C 85.761719 33.222656 94.222656 32.0625 102.507812 33.605469 C 103.035156 33.699219 103.257812 32.890625 102.730469 32.796875 C 87.996094 30.191406 72.339844 35.390625 62.605469 46.882812 C 54.042969 56.980469 52.257812 72.476562 55.378906 85.007812 C 57.355469 92.945312 62.078125 100.050781 68.3125 105.296875 C 69.046875 105.910156 70.105469 104.859375 69.367188 104.242188 " fill-opacity="1" fill-rule="nonzero"/><path fill="#ffffff" d="M 123.976562 44.078125 C 128.898438 48.773438 132.714844 54.574219 134.640625 61.128906 C 136.453125 67.308594 136.6875 74.015625 135.695312 80.355469 C 133.703125 93.066406 125.472656 104.222656 113.980469 110.050781 C 106.539062 113.824219 98.503906 113.988281 90.359375 113.371094 C 89.574219 113.3125 89.386719 114.621094 90.171875 114.761719 C 97.320312 116.039062 105.449219 115.320312 112.167969 112.535156 C 118.382812 109.957031 123.855469 105.652344 128.152344 100.507812 C 136.71875 90.257812 139.511719 76.160156 136.5625 63.195312 C 134.8125 55.503906 130.566406 48.59375 124.804688 43.25 C 124.25 42.738281 123.425781 43.558594 123.976562 44.078125 " fill-opacity="1" fill-rule="nonzero"/><path fill="#ffffff" d="M 33.796875 16.6875 C 33.417969 18.828125 33.355469 21.019531 33.230469 23.1875 C 32.96875 27.613281 32.878906 32.03125 32.902344 36.464844 C 32.910156 38.429688 32.921875 40.390625 32.949219 42.351562 C 32.980469 44.34375 33.203125 46.414062 33.015625 48.394531 C 32.691406 51.800781 29.847656 53.40625 28.25 56.121094 C 27.460938 57.457031 26.863281 58.820312 26.609375 60.355469 C 25.953125 64.328125 26.125 68.503906 26.203125 72.523438 C 26.28125 76.84375 26.542969 81.15625 26.71875 85.476562 C 27.078125 94.390625 27.722656 103.300781 28.339844 112.203125 C 28.535156 114.992188 28.746094 117.777344 28.980469 120.5625 C 29.097656 121.898438 29.386719 123.214844 29.5 124.550781 C 29.667969 126.546875 29.585938 128.761719 28.210938 130.351562 C 27.082031 131.652344 25.445312 132.292969 23.800781 131.660156 C 22.832031 131.289062 22.140625 132.910156 23.089844 133.347656 C 25.480469 134.445312 28.050781 133.507812 29.703125 131.550781 C 31.753906 129.125 31.699219 125.773438 31.3125 122.792969 C 31.074219 120.972656 30.953125 119.167969 30.832031 117.332031 C 30.289062 109.042969 29.601562 100.757812 29.160156 92.460938 C 28.695312 83.78125 28.066406 75.078125 28.257812 66.382812 C 28.308594 64.074219 28.222656 61.582031 28.933594 59.355469 C 29.613281 57.230469 31.132812 55.742188 32.542969 54.082031 C 34.757812 51.472656 35.199219 48.835938 35.121094 45.484375 C 35.082031 43.871094 35.074219 42.261719 35.074219 40.652344 C 35.066406 35.5 35.160156 30.347656 34.941406 25.199219 C 34.820312 22.371094 34.828125 19.484375 34.390625 16.6875 C 34.34375 16.390625 33.847656 16.398438 33.796875 16.6875 " fill-opacity="1" fill-rule="nonzero"/><path fill="#ffffff" d="M 15.558594 17.488281 C 15.011719 25.796875 15.277344 34.078125 15.316406 42.394531 C 15.324219 44.382812 15.148438 46.417969 15.328125 48.394531 C 15.621094 51.621094 17.5 53.574219 19.511719 55.90625 C 22.296875 59.140625 22.121094 63.351562 22.175781 67.390625 C 22.285156 75.570312 21.714844 83.742188 21.285156 91.90625 C 20.855469 100.042969 20.25 108.167969 19.652344 116.296875 C 19.523438 118.054688 19.472656 119.828125 19.273438 121.578125 C 18.898438 124.816406 18.339844 128.386719 20.433594 131.199219 C 22.042969 133.363281 24.785156 134.515625 27.324219 133.347656 C 28.265625 132.914062 27.59375 131.28125 26.613281 131.660156 C 23.238281 132.960938 20.992188 129.351562 20.863281 126.4375 C 20.78125 124.621094 21.199219 122.867188 21.390625 121.070312 C 21.582031 119.261719 21.703125 117.441406 21.835938 115.625 C 22.394531 107.78125 22.882812 99.933594 23.371094 92.089844 C 23.867188 84.113281 24.320312 76.066406 24.246094 68.070312 C 24.210938 64.441406 24.425781 60.378906 22.699219 57.0625 C 21.558594 54.871094 19.566406 53.402344 18.320312 51.296875 C 17.003906 49.066406 17.390625 46.460938 17.425781 43.984375 C 17.488281 39.300781 17.449219 34.605469 17.308594 29.921875 C 17.183594 25.769531 16.796875 21.636719 16.578125 17.488281 C 16.542969 16.832031 15.605469 16.835938 15.558594 17.488281 " fill-opacity="1" fill-rule="nonzero"/><path fill="#ffffff" d="M 31.558594 16.707031 C 31.242188 17.941406 31.25 19.277344 31.191406 20.542969 C 31.101562 22.378906 31.003906 24.21875 30.941406 26.058594 C 30.808594 29.984375 30.683594 33.917969 30.609375 37.847656 C 30.582031 39.210938 30.699219 40.679688 30.496094 42.027344 C 30.417969 42.546875 30.53125 42.757812 29.972656 42.476562 C 29.488281 42.230469 29.585938 42.03125 29.570312 41.53125 C 29.558594 41.292969 29.566406 41.054688 29.5625 40.816406 C 29.558594 40.21875 29.550781 39.621094 29.542969 39.019531 C 29.492188 35.355469 29.460938 31.6875 29.382812 28.023438 C 29.300781 24.214844 28.882812 20.429688 28.765625 16.625 C 28.753906 16.242188 28.179688 16.238281 28.167969 16.625 C 28.066406 20.496094 27.761719 24.347656 27.785156 28.222656 C 27.8125 32.203125 27.878906 36.183594 27.898438 40.164062 C 27.90625 41.65625 27.675781 43.578125 29.292969 44.3125 C 31.304688 45.222656 32.160156 43.066406 32.203125 41.484375 C 32.3125 37.554688 32.257812 33.617188 32.230469 29.683594 C 32.214844 27.207031 32.1875 24.734375 32.140625 22.261719 C 32.101562 20.445312 32.242188 18.492188 31.875 16.707031 C 31.839844 16.546875 31.597656 16.558594 31.558594 16.707031 " fill-opacity="1" fill-rule="nonzero"/><path fill="#ffffff" d="M 26.421875 16.707031 C 26.109375 17.941406 26.121094 19.277344 26.0625 20.542969 C 25.976562 22.378906 25.886719 24.21875 25.828125 26.058594 C 25.707031 29.984375 25.597656 33.917969 25.53125 37.847656 C 25.507812 39.207031 25.628906 40.679688 25.425781 42.027344 C 25.347656 42.546875 25.460938 42.757812 24.902344 42.476562 C 24.417969 42.230469 24.515625 42.03125 24.496094 41.53125 C 24.488281 41.257812 24.496094 40.980469 24.492188 40.707031 C 24.492188 40.050781 24.492188 39.394531 24.488281 38.742188 C 24.480469 34.992188 24.535156 31.238281 24.480469 27.488281 C 24.429688 23.863281 24.113281 20.257812 24.003906 16.636719 C 23.992188 16.253906 23.417969 16.253906 23.40625 16.636719 C 23.304688 20.324219 22.957031 23.996094 22.894531 27.6875 C 22.820312 31.785156 22.851562 35.886719 22.835938 39.984375 C 22.828125 41.511719 22.554688 43.554688 24.222656 44.3125 C 26.234375 45.222656 27.085938 43.070312 27.128906 41.484375 C 27.238281 37.554688 27.167969 33.617188 27.128906 29.683594 C 27.105469 27.207031 27.070312 24.734375 27.011719 22.261719 C 26.972656 20.445312 27.109375 18.492188 26.738281 16.707031 C 26.703125 16.546875 26.460938 16.558594 26.421875 16.707031 " fill-opacity="1" fill-rule="nonzero"/><path fill="#ffffff" d="M 21.65625 16.707031 C 21.339844 17.941406 21.351562 19.277344 21.289062 20.542969 C 21.199219 22.445312 21.097656 24.351562 21.035156 26.253906 C 20.910156 30.175781 20.78125 34.09375 20.703125 38.015625 C 20.691406 38.71875 20.675781 39.421875 20.660156 40.125 C 20.648438 40.734375 20.792969 41.683594 20.574219 42.25 C 20.167969 43.292969 19.6875 42.039062 19.667969 41.4375 C 19.660156 41.199219 19.664062 40.957031 19.660156 40.71875 C 19.652344 40.027344 19.636719 39.332031 19.621094 38.640625 C 19.542969 34.929688 19.488281 31.210938 19.335938 27.503906 C 19.183594 23.871094 18.738281 20.257812 18.621094 16.625 C 18.609375 16.242188 18.035156 16.238281 18.027344 16.625 C 17.929688 20.320312 17.707031 24 17.746094 27.699219 C 17.792969 31.757812 17.949219 35.816406 17.992188 39.878906 C 18.007812 41.414062 17.6875 43.558594 19.394531 44.3125 C 21.351562 45.171875 22.234375 43.179688 22.300781 41.59375 C 22.460938 37.632812 22.355469 33.648438 22.332031 29.683594 C 22.316406 27.207031 22.285156 24.734375 22.238281 22.261719 C 22.203125 20.445312 22.34375 18.492188 21.972656 16.707031 C 21.941406 16.546875 21.695312 16.558594 21.65625 16.707031 " fill-opacity="1" fill-rule="nonzero"/><path fill="#ffffff" d="M 18.414062 16.402344 C 17.734375 16.078125 17.097656 16.113281 16.367188 16.214844 C 16.035156 16.261719 15.824219 16.382812 15.683594 16.695312 C 15.460938 17.191406 15.585938 17.695312 15.8125 18.164062 C 15.910156 18.371094 16.257812 18.367188 16.359375 18.164062 C 16.527344 17.824219 16.660156 17.5 16.683594 17.097656 C 16.699219 16.839844 16.625 17.234375 16.554688 17.175781 C 16.566406 17.183594 16.824219 17.078125 16.882812 17.054688 C 17.390625 16.875 17.929688 16.765625 18.414062 16.535156 C 18.464844 16.511719 18.464844 16.425781 18.414062 16.402344 " fill-opacity="1" fill-rule="nonzero"/><path fill="#ffffff" d="M 23.9375 17.15625 C 24.019531 16.90625 24.046875 16.640625 23.886719 16.414062 C 23.65625 16.085938 23.101562 16.140625 22.753906 16.140625 C 22.484375 16.140625 22.113281 16.152344 21.878906 16.304688 C 21.511719 16.546875 21.472656 17.039062 21.582031 17.417969 C 21.652344 17.65625 21.972656 17.640625 22.046875 17.417969 C 22.101562 17.253906 22.128906 17.101562 22.164062 16.929688 C 22.175781 16.863281 22.179688 16.785156 22.230469 16.734375 C 22.339844 16.632812 22.621094 16.648438 22.753906 16.644531 C 22.972656 16.636719 23.425781 16.542969 23.574219 16.710938 C 23.664062 16.8125 23.746094 17.03125 23.789062 17.15625 C 23.816406 17.226562 23.914062 17.230469 23.9375 17.15625 " fill-opacity="1" fill-rule="nonzero"/><path fill="#ffffff" d="M 28.671875 17.15625 C 28.753906 16.90625 28.785156 16.640625 28.628906 16.414062 C 28.40625 16.089844 27.863281 16.140625 27.519531 16.140625 C 27.257812 16.140625 26.894531 16.152344 26.667969 16.304688 C 26.304688 16.546875 26.265625 17.042969 26.375 17.417969 C 26.445312 17.652344 26.765625 17.640625 26.839844 17.417969 C 26.898438 17.25 26.925781 17.101562 26.953125 16.929688 C 26.964844 16.867188 26.96875 16.78125 27.015625 16.734375 C 27.121094 16.632812 27.394531 16.648438 27.519531 16.644531 C 27.738281 16.636719 28.175781 16.542969 28.316406 16.71875 C 28.402344 16.824219 28.480469 17.027344 28.523438 17.15625 C 28.550781 17.226562 28.648438 17.230469 28.671875 17.15625 " fill-opacity="1" fill-rule="nonzero"/><path fill="#ffffff" d="M 34.296875 17.15625 C 34.371094 16.878906 34.378906 16.570312 34.160156 16.359375 C 33.863281 16.070312 33.238281 16.140625 32.863281 16.140625 C 32.554688 16.140625 32.144531 16.132812 31.859375 16.28125 C 31.429688 16.503906 31.382812 17 31.484375 17.417969 C 31.542969 17.65625 31.882812 17.640625 31.949219 17.417969 C 32.019531 17.1875 32.023438 16.855469 32.238281 16.726562 C 32.402344 16.625 32.679688 16.652344 32.863281 16.644531 C 33.109375 16.636719 33.515625 16.558594 33.757812 16.628906 C 33.957031 16.691406 34.089844 16.96875 34.148438 17.15625 C 34.167969 17.226562 34.277344 17.230469 34.296875 17.15625 " fill-opacity="1" fill-rule="nonzero"/><path fill="#ffffff" d="M 170.042969 73.210938 C 169.648438 74.324219 169.507812 75.476562 169.035156 76.566406 C 168.738281 77.253906 168.320312 77.917969 168.148438 78.652344 C 167.902344 79.695312 168.003906 80.929688 167.976562 81.988281 C 167.949219 83.3125 167.980469 84.636719 168.011719 85.957031 C 168.144531 91.75 168.457031 97.542969 168.824219 103.324219 C 169.195312 109.148438 169.625 114.972656 170.167969 120.78125 C 170.40625 123.359375 171.085938 126.039062 170.304688 128.59375 C 169.597656 130.90625 167.328125 132.566406 164.929688 131.699219 C 163.949219 131.347656 163.28125 132.921875 164.214844 133.390625 C 167.164062 134.863281 170.585938 132.832031 171.910156 130.070312 C 172.800781 128.207031 172.890625 126.101562 172.691406 124.082031 C 172.445312 121.574219 172.09375 119.082031 171.875 116.570312 C 170.992188 106.402344 170.214844 96.167969 170.148438 85.957031 C 170.140625 84.632812 170.152344 83.3125 170.183594 81.988281 C 170.207031 80.816406 170.046875 79.585938 170.277344 78.433594 C 170.628906 76.679688 171.183594 75 170.636719 73.210938 C 170.542969 72.910156 170.140625 72.929688 170.042969 73.210938 " fill-opacity="1" fill-rule="nonzero"/><path fill="#ffffff" d="M 161.8125 76.457031 C 162.140625 77.246094 161.984375 78.296875 161.960938 79.121094 C 161.914062 80.820312 161.835938 82.511719 161.859375 84.214844 C 161.933594 88.992188 161.835938 93.773438 161.644531 98.550781 C 161.347656 106.015625 161.167969 113.535156 160.503906 120.976562 C 160.242188 123.902344 159.476562 126.726562 160.605469 129.589844 C 161.777344 132.574219 165.324219 134.945312 168.457031 133.40625 C 169.386719 132.949219 168.734375 131.378906 167.742188 131.71875 C 166.0625 132.296875 164.480469 131.730469 163.359375 130.359375 C 161.933594 128.617188 161.976562 126.148438 162.191406 124.023438 C 162.316406 122.808594 162.558594 121.628906 162.625 120.414062 C 162.796875 117.453125 162.984375 114.492188 163.097656 111.527344 C 163.445312 102.464844 164.03125 93.410156 164.0625 84.339844 C 164.070312 82.484375 163.929688 80.644531 163.59375 78.816406 C 163.433594 77.9375 163.285156 76.8125 162.746094 76.066406 C 162.4375 75.640625 161.574219 75.882812 161.8125 76.457031 " fill-opacity="1" fill-rule="nonzero"/><path fill="#ffffff" d="M 170.839844 75.160156 C 171.390625 68.605469 171.621094 62.070312 171.75 55.492188 C 171.960938 44.988281 171.910156 34.480469 171.566406 23.980469 C 171.484375 21.589844 171.488281 19.183594 171.496094 16.792969 C 171.5 15.617188 169.671875 15.613281 169.667969 16.792969 C 169.644531 23.347656 169.308594 29.898438 169.199219 36.457031 C 169.023438 46.933594 168.839844 57.5 169.417969 67.96875 C 169.550781 70.367188 169.730469 72.761719 169.917969 75.160156 C 169.960938 75.753906 170.789062 75.75 170.839844 75.160156 " fill-opacity="1" fill-rule="nonzero"/><path fill="#ffffff" d="M 170.472656 16.167969 C 169.175781 15.460938 167.503906 16.394531 166.378906 17.101562 C 164.722656 18.140625 163.320312 19.625 162.316406 21.292969 C 160.355469 24.542969 159.710938 28.417969 159.445312 32.148438 C 159.203125 35.511719 159.300781 38.894531 159.328125 42.261719 C 159.394531 50.730469 159.441406 59.199219 159.542969 67.664062 C 159.5625 69.253906 159.566406 70.839844 159.789062 72.421875 C 160.230469 75.515625 161.75 78.152344 162.035156 81.320312 C 162.132812 82.375 163.5625 82.367188 163.671875 81.320312 C 163.949219 78.636719 162.75 76.484375 162.085938 74.019531 C 161.609375 72.242188 161.570312 70.40625 161.574219 68.574219 C 161.578125 65.417969 161.570312 62.261719 161.5625 59.101562 C 161.546875 51.976562 161.496094 44.851562 161.515625 37.726562 C 161.527344 33.847656 161.585938 29.835938 162.671875 26.082031 C 163.304688 23.886719 164.351562 21.769531 165.949219 20.113281 C 166.726562 19.304688 167.625 18.613281 168.589844 18.042969 C 169.351562 17.59375 170.105469 17.347656 170.574219 16.5625 C 170.652344 16.429688 170.609375 16.238281 170.472656 16.167969 " fill-opacity="1" fill-rule="nonzero"/><path fill="#ffffff" d="M 105.164062 17.628906 C 127.480469 20.746094 146.894531 38.804688 151.195312 60.972656 C 153.476562 72.738281 152.410156 85.828125 147.605469 96.863281 C 142.855469 107.78125 133.828125 117.277344 123.558594 123.179688 C 112.394531 129.59375 98.933594 130.859375 86.371094 128.746094 C 74.941406 126.820312 63.867188 121.441406 55.550781 113.324219 C 47.832031 105.789062 42.574219 96.195312 40.546875 85.605469 C 38.496094 74.898438 39.136719 63.445312 42.425781 53.046875 C 43.980469 48.128906 46.207031 43.371094 49.308594 39.234375 C 52.808594 34.574219 57.257812 30.539062 62.054688 27.257812 C 71.925781 20.511719 83.847656 16.417969 95.859375 16.605469 C 97.378906 16.628906 98.851562 16.765625 100.351562 17.007812 C 101.953125 17.265625 103.574219 17.320312 105.164062 17.628906 C 106.21875 17.835938 106.664062 16.214844 105.605469 16.015625 C 102.503906 15.441406 99.242188 15.363281 96.09375 15.199219 C 92.953125 15.03125 89.796875 15.160156 86.675781 15.550781 C 80.535156 16.320312 74.503906 18.039062 68.894531 20.65625 C 58.25 25.621094 48.449219 33.859375 43.109375 44.453125 C 37.941406 54.714844 36.074219 66.664062 36.800781 78.070312 C 37.523438 89.445312 41.089844 100.085938 48.011719 109.203125 C 55.210938 118.6875 65.117188 125.429688 76.328125 129.3125 C 82.804688 131.554688 89.691406 132.558594 96.535156 132.636719 C 103.203125 132.714844 110.050781 131.972656 116.371094 129.761719 C 128.492188 125.523438 138.851562 116.621094 145.886719 105.984375 C 152.929688 95.335938 155.589844 82.242188 154.933594 69.59375 C 154.304688 57.472656 150.128906 46.0625 142.449219 36.632812 C 135.128906 27.648438 124.902344 20.90625 113.761719 17.707031 C 111.015625 16.921875 108.214844 16.367188 105.386719 15.988281 C 104.460938 15.863281 104.226562 17.5 105.164062 17.628906 " fill-opacity="1" fill-rule="nonzero"/><path fill="#ffffff" d="M 80.445312 53.925781 C 80.152344 55.492188 80.339844 57.25 80.359375 58.859375 C 80.382812 60.550781 80.445312 62.203125 80.589844 63.875 C 80.738281 65.484375 83.472656 65.710938 83.808594 64.101562 C 84.207031 62.285156 84.394531 60.59375 84.351562 58.753906 C 84.289062 56.957031 84.226562 55.011719 83.539062 53.339844 C 83.265625 52.691406 82.429688 52.335938 81.78125 52.460938 C 81.007812 52.609375 80.589844 53.214844 80.445312 53.925781 Z M 80.445312 53.925781 " fill-opacity="1" fill-rule="nonzero"/><path fill="#ffffff" d="M 103.160156 53.382812 C 102.535156 54.636719 102.785156 56.496094 102.847656 57.875 C 102.910156 59.484375 103.097656 60.96875 103.515625 62.515625 C 104.082031 64.625 106.757812 64.3125 107.175781 62.304688 C 107.53125 60.632812 107.550781 59.109375 107.363281 57.414062 C 107.195312 55.890625 107.050781 54.070312 106.066406 52.816406 C 105.1875 51.710938 103.683594 52.316406 103.160156 53.382812 Z M 103.160156 53.382812 " fill-opacity="1" fill-rule="nonzero"/><g clip-path="url(#0b14bec791)"><path fill="#ffffff" d="M 64.6875 79.902344 C 64.625 83.058594 66.210938 86.027344 67.96875 88.554688 C 69.703125 91.042969 71.917969 93.214844 74.402344 94.949219 C 79.148438 98.253906 84.957031 100.132812 90.726562 100.386719 C 96.578125 100.636719 102.578125 99.421875 107.71875 96.582031 C 112.839844 93.761719 117.164062 89.601562 120.320312 84.667969 C 122.054688 81.953125 123.457031 78.984375 124.4375 75.910156 C 124.960938 74.324219 125.378906 72.671875 125.648438 71.019531 C 125.902344 69.390625 126.234375 67.53125 125.710938 65.941406 C 125.210938 64.4375 123.371094 64.230469 122.660156 65.710938 C 122.097656 66.902344 122.035156 68.21875 121.761719 69.515625 C 121.492188 70.792969 121.199219 72.066406 120.820312 73.320312 C 120.113281 75.722656 119.148438 78.0625 117.917969 80.238281 C 115.429688 84.648438 112.003906 88.597656 107.738281 91.398438 C 99.296875 96.914062 87.882812 97.667969 78.855469 93.027344 C 76.222656 91.667969 73.777344 89.851562 71.769531 87.699219 C 69.492188 85.253906 68.195312 82.410156 66.628906 79.507812 C 66.167969 78.691406 64.707031 78.835938 64.6875 79.902344 Z M 64.6875 79.902344 " fill-opacity="1" fill-rule="nonzero"/></g><g fill="#ffffff" fill-opacity="1"><g transform="translate(196.45092, 104.513696)"><g><path d="M 18.875 -3.625 C 18.875 -0.382812 15.710938 1.234375 9.390625 1.234375 C 8.015625 1.234375 7.203125 0.535156 6.953125 -0.859375 C 6.710938 -2.265625 6.59375 -4.226562 6.59375 -6.75 C 6.59375 -12.082031 7.664062 -18.675781 9.8125 -26.53125 C 13.375 -39.5 17.191406 -47.132812 21.265625 -49.4375 C 21.804688 -49.769531 22.40625 -49.9375 23.0625 -49.9375 C 23.726562 -49.9375 24.0625 -48.863281 24.0625 -46.71875 C 24.0625 -44.582031 23.953125 -42.6875 23.734375 -41.03125 C 23.296875 -37.738281 22.507812 -33.484375 21.375 -28.265625 C 20.25 -23.046875 19.6875 -19.96875 19.6875 -19.03125 Z M 24.46875 -25.796875 C 24.46875 -26.503906 24.863281 -26.96875 25.65625 -27.1875 C 26.457031 -27.414062 27.460938 -27.625 28.671875 -27.8125 C 29.878906 -28 31.195312 -28.285156 32.625 -28.671875 C 34.0625 -29.054688 35.382812 -29.769531 36.59375 -30.8125 C 39.394531 -33.238281 40.796875 -37.28125 40.796875 -42.9375 C 40.796875 -46.5625 39.570312 -49.332031 37.125 -51.25 C 34.675781 -53.175781 31.15625 -54.140625 26.5625 -54.140625 C 21.976562 -54.140625 17.679688 -53.175781 13.671875 -51.25 C 12.191406 -50.539062 10.859375 -49.882812 9.671875 -49.28125 C 8.492188 -48.675781 7.410156 -48.375 6.421875 -48.375 C 5.429688 -48.375 4.9375 -48.675781 4.9375 -49.28125 C 4.9375 -50.21875 5.84375 -51.753906 7.65625 -53.890625 C 9.476562 -55.867188 12.351562 -57.707031 16.28125 -59.40625 C 20.207031 -61.113281 24.335938 -61.96875 28.671875 -61.96875 C 36.859375 -62.019531 43.234375 -60.097656 47.796875 -56.203125 C 51.753906 -52.796875 53.734375 -48.382812 53.734375 -42.96875 C 53.734375 -37.5625 51.78125 -32.726562 47.875 -28.46875 C 43.976562 -24.207031 39.101562 -22.078125 33.25 -22.078125 C 27.394531 -22.078125 24.46875 -23.316406 24.46875 -25.796875 Z M 24.46875 -25.796875 "/></g></g></g><g fill="#ffffff" fill-opacity="1"><g transform="translate(246.877815, 104.513696)"><g><path d="M 20.84375 0.25 C 12.988281 0.300781 7.632812 -2.632812 4.78125 -8.5625 C 3.789062 -10.65625 3.296875 -13.28125 3.296875 -16.4375 C 3.296875 -19.59375 3.570312 -22.957031 4.125 -26.53125 C 5.21875 -33.675781 7.332031 -40.269531 10.46875 -46.3125 C 12.0625 -49.382812 13.847656 -52.019531 15.828125 -54.21875 C 20.160156 -59.050781 24.992188 -61.441406 30.328125 -61.390625 C 32.691406 -61.390625 34.546875 -60.742188 35.890625 -59.453125 C 37.234375 -58.160156 37.90625 -56.304688 37.90625 -53.890625 C 37.90625 -51.472656 37.191406 -49.039062 35.765625 -46.59375 C 34.335938 -44.15625 32.507812 -41.628906 30.28125 -39.015625 C 28.0625 -36.410156 25.601562 -33.675781 22.90625 -30.8125 C 20.21875 -27.957031 17.582031 -24.859375 15 -21.515625 L 15 -18.21875 C 15 -15.132812 15.65625 -12.878906 16.96875 -11.453125 C 18.289062 -10.023438 19.832031 -9.3125 21.59375 -9.3125 C 26.3125 -9.3125 30.484375 -11.644531 34.109375 -16.3125 C 35.597656 -18.238281 36.726562 -19.203125 37.5 -19.203125 C 38.269531 -19.203125 38.65625 -18.265625 38.65625 -16.390625 C 38.65625 -14.523438 38.144531 -12.617188 37.125 -10.671875 C 36.101562 -8.722656 34.769531 -6.9375 33.125 -5.3125 C 31.476562 -3.695312 29.582031 -2.363281 27.4375 -1.3125 C 25.300781 -0.269531 23.101562 0.25 20.84375 0.25 Z M 25.296875 -44 C 26.453125 -45.425781 27.359375 -46.71875 28.015625 -47.875 C 28.671875 -49.03125 29 -50.222656 29 -51.453125 C 29 -52.691406 28.5625 -53.3125 27.6875 -53.3125 C 25.757812 -53.3125 23.628906 -51.332031 21.296875 -47.375 C 18.960938 -43.425781 17.21875 -38.238281 16.0625 -31.8125 C 17.9375 -34.664062 19.65625 -37.050781 21.21875 -38.96875 C 22.78125 -40.894531 24.140625 -42.570312 25.296875 -44 Z M 25.296875 -44 "/></g></g></g><g fill="#ffffff" fill-opacity="1"><g transform="translate(278.188627, 104.513696)"><g><path d="M 53.0625 -19.453125 C 54.050781 -19.453125 54.546875 -18.1875 54.546875 -15.65625 C 54.546875 -14.28125 53.96875 -12.617188 52.8125 -10.671875 C 51.664062 -8.722656 50.171875 -6.9375 48.328125 -5.3125 C 46.492188 -3.695312 44.445312 -2.363281 42.1875 -1.3125 C 39.9375 -0.269531 37.738281 0.25 35.59375 0.25 C 32.6875 0.25 30.738281 -2.304688 29.75 -7.421875 C 28.320312 -5.054688 26.453125 -3.117188 24.140625 -1.609375 C 21.835938 -0.0976562 18.75 0.65625 14.875 0.65625 C 11 0.65625 7.878906 -0.550781 5.515625 -2.96875 C 3.160156 -5.382812 2.007812 -8.320312 2.0625 -11.78125 C 2.0625 -21.125 5.164062 -28.488281 11.375 -33.875 C 14.007812 -36.125 16.46875 -37.601562 18.75 -38.3125 C 21.03125 -39.03125 23.429688 -39.390625 25.953125 -39.390625 C 28.484375 -39.390625 30.546875 -38.953125 32.140625 -38.078125 C 32.910156 -39.671875 33.789062 -40.46875 34.78125 -40.46875 C 36.695312 -40.46875 38.519531 -39.628906 40.25 -37.953125 C 41.976562 -36.273438 42.84375 -34.691406 42.84375 -33.203125 C 42.082031 -31.390625 40.957031 -29.222656 39.46875 -26.703125 C 39.03125 -24.171875 38.8125 -20.625 38.8125 -16.0625 C 38.8125 -11.507812 39.390625 -9.234375 40.546875 -9.234375 C 41.972656 -9.234375 45.429688 -12.085938 50.921875 -17.796875 C 51.910156 -18.898438 52.625 -19.453125 53.0625 -19.453125 Z M 14.171875 -14.5 C 14.171875 -10.269531 15.738281 -8.15625 18.875 -8.15625 C 22.21875 -8.207031 24.988281 -9.992188 27.1875 -13.515625 C 27.957031 -14.722656 28.59375 -16.207031 29.09375 -17.96875 C 29.09375 -24.113281 29.640625 -29.382812 30.734375 -33.78125 C 26.285156 -32.90625 22.410156 -30.765625 19.109375 -27.359375 C 15.816406 -23.953125 14.171875 -19.664062 14.171875 -14.5 Z M 14.171875 -14.5 "/></g></g></g><g fill="#ffffff" fill-opacity="1"><g transform="translate(326.143612, 104.513696)"><g><path d="M 6.140625 -4.484375 C 5.503906 -5.941406 5.050781 -7.644531 4.78125 -9.59375 C 4.507812 -11.550781 4.375 -14.285156 4.375 -17.796875 C 4.375 -21.316406 5.03125 -26.070312 6.34375 -32.0625 L 2.640625 -32.0625 C 1.972656 -32.0625 1.640625 -32.332031 1.640625 -32.875 C 1.640625 -34.195312 1.765625 -35.28125 2.015625 -36.125 C 2.265625 -36.976562 2.859375 -37.957031 3.796875 -39.0625 L 5.765625 -39.0625 C 6.535156 -39.0625 7.359375 -39.085938 8.234375 -39.140625 C 10.878906 -47.597656 13.570312 -51.828125 16.3125 -51.828125 C 18.507812 -51.773438 20.050781 -50.375 20.9375 -47.625 C 21.15625 -46.863281 21.398438 -46.039062 21.671875 -45.15625 L 18.296875 -39.21875 C 22.140625 -39.113281 24.566406 -39.0625 25.578125 -39.0625 C 26.597656 -39.0625 27.148438 -38.960938 27.234375 -38.765625 C 27.316406 -38.578125 27.359375 -38.289062 27.359375 -37.90625 C 27.359375 -36.914062 27.125 -35.675781 26.65625 -34.1875 C 26.1875 -32.707031 25.648438 -32 25.046875 -32.0625 L 16.8125 -32.46875 C 15.65625 -25.769531 15.078125 -20.222656 15.078125 -15.828125 C 15.078125 -11.429688 15.707031 -9.234375 16.96875 -9.234375 C 18.019531 -9.234375 19.914062 -10.097656 22.65625 -11.828125 C 25.40625 -13.554688 27.382812 -15.21875 28.59375 -16.8125 C 29.800781 -18.40625 30.789062 -19.203125 31.5625 -19.203125 C 32.332031 -19.203125 32.71875 -18.265625 32.71875 -16.390625 C 32.71875 -14.523438 32.054688 -12.617188 30.734375 -10.671875 C 29.421875 -8.722656 27.757812 -6.9375 25.75 -5.3125 C 23.75 -3.695312 21.523438 -2.363281 19.078125 -1.3125 C 16.628906 -0.269531 14.5 0.25 12.6875 0.25 C 10.875 0.25 9.488281 -0.175781 8.53125 -1.03125 C 7.570312 -1.882812 6.773438 -3.035156 6.140625 -4.484375 Z M 6.140625 -4.484375 "/></g></g></g><g fill="#ffffff" fill-opacity="1"><g transform="translate(352.263428, 104.513696)"><g><path d="M 21.671875 -8.984375 C 25.953125 -8.984375 30.097656 -10.6875 34.109375 -14.09375 C 35.597656 -15.351562 36.804688 -16.519531 37.734375 -17.59375 C 38.671875 -18.664062 39.390625 -19.203125 39.890625 -19.203125 C 40.648438 -19.203125 41.03125 -18.429688 41.03125 -16.890625 C 41.03125 -15.347656 40.617188 -13.628906 39.796875 -11.734375 C 38.972656 -9.847656 37.601562 -8 35.6875 -6.1875 C 30.957031 -1.726562 24.472656 0.5 16.234375 0.5 C 9.691406 0.5 5.242188 -1.863281 2.890625 -6.59375 C 2.054688 -8.238281 1.640625 -10.597656 1.640625 -13.671875 C 1.640625 -16.753906 2.242188 -19.957031 3.453125 -23.28125 C 4.671875 -26.601562 6.28125 -29.472656 8.28125 -31.890625 C 10.289062 -34.304688 12.613281 -36.1875 15.25 -37.53125 C 17.882812 -38.882812 20.695312 -39.5625 23.6875 -39.5625 C 26.6875 -39.5625 28.992188 -38.816406 30.609375 -37.328125 C 32.234375 -35.847656 33.046875 -33.925781 33.046875 -31.5625 C 33.046875 -29.195312 32.453125 -27.257812 31.265625 -25.75 C 30.085938 -24.238281 28.5625 -22.972656 26.6875 -21.953125 C 24.820312 -20.941406 22.75 -20.035156 20.46875 -19.234375 C 18.195312 -18.441406 15.960938 -17.550781 13.765625 -16.5625 L 13.765625 -14.5 C 13.816406 -12.519531 14.640625 -11.117188 16.234375 -10.296875 C 17.828125 -9.472656 19.640625 -9.035156 21.671875 -8.984375 Z M 20.265625 -32.21875 C 17.410156 -32.21875 15.4375 -28.894531 14.34375 -22.25 C 15.488281 -23.019531 16.570312 -23.707031 17.59375 -24.3125 C 18.613281 -24.914062 19.503906 -25.492188 20.265625 -26.046875 C 21.921875 -27.253906 22.773438 -28.625 22.828125 -30.15625 C 22.828125 -31.53125 21.972656 -32.21875 20.265625 -32.21875 Z M 20.265625 -32.21875 "/></g></g></g><g fill="#ffffff" fill-opacity="1"><g transform="translate(386.705324, 104.513696)"><g><path d="M 83.5625 -19.453125 C 84.488281 -19.453125 84.953125 -18.1875 84.953125 -15.65625 C 84.953125 -14.28125 84.375 -12.617188 83.21875 -10.671875 C 82.070312 -8.722656 80.578125 -6.9375 78.734375 -5.3125 C 76.898438 -3.695312 74.851562 -2.363281 72.59375 -1.3125 C 70.34375 -0.269531 67.96875 0.25 65.46875 0.25 C 62.96875 0.25 61.015625 -0.554688 59.609375 -2.171875 C 58.210938 -3.796875 57.515625 -5.609375 57.515625 -7.609375 C 57.515625 -9.617188 57.84375 -11.890625 58.5 -14.421875 C 59.164062 -16.953125 59.882812 -19.585938 60.65625 -22.328125 C 62.738281 -29.640625 63.804688 -34.773438 63.859375 -37.734375 C 63.859375 -39.003906 63.691406 -39.984375 63.359375 -40.671875 C 63.035156 -41.359375 62.40625 -41.703125 61.46875 -41.703125 C 59.820312 -41.703125 58.066406 -40.710938 56.203125 -38.734375 C 54.335938 -36.753906 52.578125 -34.226562 50.921875 -31.15625 C 47.128906 -24.125 45.125 -17.253906 44.90625 -10.546875 C 45.019531 -9.773438 45.128906 -9.003906 45.234375 -8.234375 C 45.347656 -7.472656 45.40625 -6.648438 45.40625 -5.765625 C 45.40625 -4.003906 44.539062 -2.394531 42.8125 -0.9375 C 41.082031 0.507812 39.144531 1.234375 37 1.234375 C 35.738281 1.234375 34.804688 0.617188 34.203125 -0.609375 C 33.597656 -1.847656 33.296875 -3.375 33.296875 -5.1875 C 33.296875 -7 33.707031 -9.472656 34.53125 -12.609375 C 35.351562 -15.742188 36.257812 -19.066406 37.25 -22.578125 C 39.882812 -31.859375 41.226562 -38.78125 41.28125 -43.34375 C 41.28125 -45.65625 40.992188 -47.46875 40.421875 -48.78125 C 39.847656 -50.101562 38.734375 -50.765625 37.078125 -50.765625 C 34.117188 -50.765625 31.179688 -48.648438 28.265625 -44.421875 C 25.347656 -40.191406 22.738281 -33.625 20.4375 -24.71875 C 19.832031 -22.414062 19.363281 -20.410156 19.03125 -18.703125 L 18.953125 -17.140625 C 19.992188 -12.085938 20.515625 -8.789062 20.515625 -7.25 C 20.515625 -4.0625 19.390625 -1.921875 17.140625 -0.828125 C 16.097656 -0.328125 15.09375 0.140625 14.125 0.578125 C 13.164062 1.015625 12.140625 1.234375 11.046875 1.234375 C 8.296875 1.234375 6.921875 -1.382812 6.921875 -6.625 C 6.921875 -11.875 8.378906 -22.132812 11.296875 -37.40625 C 12.335938 -42.90625 12.859375 -45.984375 12.859375 -46.640625 C 12.859375 -51.085938 11.734375 -53.3125 9.484375 -53.3125 C 8.710938 -53.3125 8.007812 -53.09375 7.375 -52.65625 C 6.738281 -52.21875 6.101562 -51.75 5.46875 -51.25 C 4.84375 -50.757812 4.195312 -50.296875 3.53125 -49.859375 C 2.875 -49.421875 2.117188 -49.203125 1.265625 -49.203125 C 0.421875 -49.203125 0 -49.941406 0 -51.421875 C 0 -54.441406 1.398438 -56.914062 4.203125 -58.84375 C 6.890625 -60.820312 10.160156 -61.8125 14.015625 -61.8125 C 18.953125 -61.8125 21.863281 -59.5 22.75 -54.875 C 22.96875 -53.507812 23.128906 -52.054688 23.234375 -50.515625 C 27.304688 -58.148438 32.445312 -61.96875 38.65625 -61.96875 C 45.40625 -61.96875 49.273438 -58.726562 50.265625 -52.25 C 50.597656 -50.375 50.738281 -48.367188 50.6875 -46.234375 L 50.6875 -45.578125 C 54.25 -50.515625 58.476562 -52.984375 63.375 -52.984375 C 70.289062 -52.984375 73.75 -48.8125 73.75 -40.46875 C 73.75 -36.832031 73.1875 -32.582031 72.0625 -27.71875 C 70.9375 -22.863281 70.113281 -19.378906 69.59375 -17.265625 C 69.070312 -15.148438 68.8125 -13.515625 68.8125 -12.359375 C 68.8125 -10.273438 69.535156 -9.234375 70.984375 -9.234375 C 72.441406 -9.234375 75.921875 -12.085938 81.421875 -17.796875 C 82.410156 -18.898438 83.125 -19.453125 83.5625 -19.453125 Z M 83.5625 -19.453125 "/></g></g></g><g fill="#ffffff" fill-opacity="1"><g transform="translate(465.06476, 104.513696)"><g><path d="M 53.0625 -19.453125 C 54.050781 -19.453125 54.546875 -18.1875 54.546875 -15.65625 C 54.546875 -14.28125 53.96875 -12.617188 52.8125 -10.671875 C 51.664062 -8.722656 50.171875 -6.9375 48.328125 -5.3125 C 46.492188 -3.695312 44.445312 -2.363281 42.1875 -1.3125 C 39.9375 -0.269531 37.738281 0.25 35.59375 0.25 C 32.6875 0.25 30.738281 -2.304688 29.75 -7.421875 C 28.320312 -5.054688 26.453125 -3.117188 24.140625 -1.609375 C 21.835938 -0.0976562 18.75 0.65625 14.875 0.65625 C 11 0.65625 7.878906 -0.550781 5.515625 -2.96875 C 3.160156 -5.382812 2.007812 -8.320312 2.0625 -11.78125 C 2.0625 -21.125 5.164062 -28.488281 11.375 -33.875 C 14.007812 -36.125 16.46875 -37.601562 18.75 -38.3125 C 21.03125 -39.03125 23.429688 -39.390625 25.953125 -39.390625 C 28.484375 -39.390625 30.546875 -38.953125 32.140625 -38.078125 C 32.910156 -39.671875 33.789062 -40.46875 34.78125 -40.46875 C 36.695312 -40.46875 38.519531 -39.628906 40.25 -37.953125 C 41.976562 -36.273438 42.84375 -34.691406 42.84375 -33.203125 C 42.082031 -31.390625 40.957031 -29.222656 39.46875 -26.703125 C 39.03125 -24.171875 38.8125 -20.625 38.8125 -16.0625 C 38.8125 -11.507812 39.390625 -9.234375 40.546875 -9.234375 C 41.972656 -9.234375 45.429688 -12.085938 50.921875 -17.796875 C 51.910156 -18.898438 52.625 -19.453125 53.0625 -19.453125 Z M 14.171875 -14.5 C 14.171875 -10.269531 15.738281 -8.15625 18.875 -8.15625 C 22.21875 -8.207031 24.988281 -9.992188 27.1875 -13.515625 C 27.957031 -14.722656 28.59375 -16.207031 29.09375 -17.96875 C 29.09375 -24.113281 29.640625 -29.382812 30.734375 -33.78125 C 26.285156 -32.90625 22.410156 -30.765625 19.109375 -27.359375 C 15.816406 -23.953125 14.171875 -19.664062 14.171875 -14.5 Z M 14.171875 -14.5 "/></g></g></g><g fill="#ffffff" fill-opacity="1"><g transform="translate(513.019759, 104.513696)"><g><path d="M 6.140625 -4.484375 C 5.503906 -5.941406 5.050781 -7.644531 4.78125 -9.59375 C 4.507812 -11.550781 4.375 -14.285156 4.375 -17.796875 C 4.375 -21.316406 5.03125 -26.070312 6.34375 -32.0625 L 2.640625 -32.0625 C 1.972656 -32.0625 1.640625 -32.332031 1.640625 -32.875 C 1.640625 -34.195312 1.765625 -35.28125 2.015625 -36.125 C 2.265625 -36.976562 2.859375 -37.957031 3.796875 -39.0625 L 5.765625 -39.0625 C 6.535156 -39.0625 7.359375 -39.085938 8.234375 -39.140625 C 10.878906 -47.597656 13.570312 -51.828125 16.3125 -51.828125 C 18.507812 -51.773438 20.050781 -50.375 20.9375 -47.625 C 21.15625 -46.863281 21.398438 -46.039062 21.671875 -45.15625 L 18.296875 -39.21875 C 22.140625 -39.113281 24.566406 -39.0625 25.578125 -39.0625 C 26.597656 -39.0625 27.148438 -38.960938 27.234375 -38.765625 C 27.316406 -38.578125 27.359375 -38.289062 27.359375 -37.90625 C 27.359375 -36.914062 27.125 -35.675781 26.65625 -34.1875 C 26.1875 -32.707031 25.648438 -32 25.046875 -32.0625 L 16.8125 -32.46875 C 15.65625 -25.769531 15.078125 -20.222656 15.078125 -15.828125 C 15.078125 -11.429688 15.707031 -9.234375 16.96875 -9.234375 C 18.019531 -9.234375 19.914062 -10.097656 22.65625 -11.828125 C 25.40625 -13.554688 27.382812 -15.21875 28.59375 -16.8125 C 29.800781 -18.40625 30.789062 -19.203125 31.5625 -19.203125 C 32.332031 -19.203125 32.71875 -18.265625 32.71875 -16.390625 C 32.71875 -14.523438 32.054688 -12.617188 30.734375 -10.671875 C 29.421875 -8.722656 27.757812 -6.9375 25.75 -5.3125 C 23.75 -3.695312 21.523438 -2.363281 19.078125 -1.3125 C 16.628906 -0.269531 14.5 0.25 12.6875 0.25 C 10.875 0.25 9.488281 -0.175781 8.53125 -1.03125 C 7.570312 -1.882812 6.773438 -3.035156 6.140625 -4.484375 Z M 6.140625 -4.484375 "/></g></g></g><g fill="#ffffff" fill-opacity="1"><g transform="translate(539.139575, 104.513696)"><g><path d="M 21.671875 -8.984375 C 25.953125 -8.984375 30.097656 -10.6875 34.109375 -14.09375 C 35.597656 -15.351562 36.804688 -16.519531 37.734375 -17.59375 C 38.671875 -18.664062 39.390625 -19.203125 39.890625 -19.203125 C 40.648438 -19.203125 41.03125 -18.429688 41.03125 -16.890625 C 41.03125 -15.347656 40.617188 -13.628906 39.796875 -11.734375 C 38.972656 -9.847656 37.601562 -8 35.6875 -6.1875 C 30.957031 -1.726562 24.472656 0.5 16.234375 0.5 C 9.691406 0.5 5.242188 -1.863281 2.890625 -6.59375 C 2.054688 -8.238281 1.640625 -10.597656 1.640625 -13.671875 C 1.640625 -16.753906 2.242188 -19.957031 3.453125 -23.28125 C 4.671875 -26.601562 6.28125 -29.472656 8.28125 -31.890625 C 10.289062 -34.304688 12.613281 -36.1875 15.25 -37.53125 C 17.882812 -38.882812 20.695312 -39.5625 23.6875 -39.5625 C 26.6875 -39.5625 28.992188 -38.816406 30.609375 -37.328125 C 32.234375 -35.847656 33.046875 -33.925781 33.046875 -31.5625 C 33.046875 -29.195312 32.453125 -27.257812 31.265625 -25.75 C 30.085938 -24.238281 28.5625 -22.972656 26.6875 -21.953125 C 24.820312 -20.941406 22.75 -20.035156 20.46875 -19.234375 C 18.195312 -18.441406 15.960938 -17.550781 13.765625 -16.5625 L 13.765625 -14.5 C 13.816406 -12.519531 14.640625 -11.117188 16.234375 -10.296875 C 17.828125 -9.472656 19.640625 -9.035156 21.671875 -8.984375 Z M 20.265625 -32.21875 C 17.410156 -32.21875 15.4375 -28.894531 14.34375 -22.25 C 15.488281 -23.019531 16.570312 -23.707031 17.59375 -24.3125 C 18.613281 -24.914062 19.503906 -25.492188 20.265625 -26.046875 C 21.921875 -27.253906 22.773438 -28.625 22.828125 -30.15625 C 22.828125 -31.53125 21.972656 -32.21875 20.265625 -32.21875 Z M 20.265625 -32.21875 "/></g></g></g></svg>